<?xml version="1.0" encoding="UTF-8" standalone="no"?>
<svg
   xmlns:dc="http://purl.org/dc/elements/1.1/"
   xmlns:cc="http://creativecommons.org/ns#"
   xmlns:rdf="http://www.w3.org/1999/02/22-rdf-syntax-ns#"
   xmlns:svg="http://www.w3.org/2000/svg"
   xmlns="http://www.w3.org/2000/svg"
   version="1.1"
   id="Layer_1"
   x="0px"
   y="0px"
   viewBox="0 0 511.99998 512.00002"
   xml:space="preserve"
   width="512"
   height="512"><metadata
   id="metadata232"><rdf:RDF><cc:Work
       rdf:about=""><dc:format>image/svg+xml</dc:format><dc:type
         rdf:resource="http://purl.org/dc/dcmitype/StillImage" /><dc:title></dc:title></cc:Work></rdf:RDF></metadata><defs
   id="defs230" />
<style
   type="text/css"
   id="style2">
	.st0{fill:none;stroke:#000000;stroke-width:2;stroke-linecap:round;stroke-linejoin:round;stroke-miterlimit:10;}
	.st1{fill:#FFFFFF;stroke:#000000;stroke-width:2;stroke-miterlimit:10;}
	.st2{fill:none;stroke:#000000;stroke-width:2;stroke-miterlimit:10;}
	.st3{fill:none;}
</style>

<g
   id="g416"
   transform="matrix(0.93498498,0,0,0.93498873,-77.040542,-122.01603)">
	<path
   id="path4"
   class="st0"
   d="m 332.5,171.9 c -0.2,1.4 -3.9,10.2 -4.3,11.6 -2.7,8.1 -5.7,16 -8.3,24.2 -1.7,5.4 -3.2,10.9 -5.9,15.6 -2.9,5.2 -6.1,10.3 -9.2,15.4 -6.6,11.1 -15.2,20.3 -21,32 -0.4,0.8 -1.1,1.4 -1.3,2.2 -0.5,2.3 -1.5,1.6 -2.6,0.9 -7,-4 -14.4,-6.7 -21.8,-9 -4.6,-1.4 -9.5,-1.8 -14.1,-2.9 -7.2,-1.7 -14.6,-2.9 -20.7,-8.2 -4.1,-3.6 -7.9,-7.5 -11.1,-12.5 -2.5,-4 -6.3,-11.4 -8.7,-15.7" />
	<path
   id="path6"
   class="st0"
   d="m 629,194.8 c -2.8,4.5 -6.6,7.5 -10.5,10.3 -7.9,5.5 -15.7,11.2 -24,15.9 -10.1,5.8 -20.1,11.8 -29.9,18.4 -7,4.7 -13.7,10.2 -20.2,15.7 -7.5,6.2 -14.7,12.7 -22.1,19.1 -6,5.2 -8.9,12.7 -9.8,21.1 -0.5,5 1.4,10 4.1,14 1.3,2 3.1,3.6 4.7,5.4 4.9,5.3 8.2,11.6 9.5,19.5 1.1,7.5 0.4,15.2 -1.1,22.6 -1.7,8.3 -5.6,15.1 -10.7,21.1 -1.6,1.8 -3.1,3.6 -4.7,5.3" />
	<path
   id="path8"
   class="st0"
   d="m 629,194.8 c -6.9,4.2 -15.8,8.9 -22.8,12.8 -10.5,5.9 -21,11.9 -31,19.1 -9.9,7 -19.8,13.8 -29.4,21.4 -5.7,4.5 -11.4,8.8 -16.6,14.1 -1.2,1.2 -13.5,10.4 -14.9,11.4" />
	<path
   id="path10"
   class="st0"
   d="m 372.4,406.2 c 0.6,3.5 3.7,9.2 5.6,11.7 2.3,3.2 4.3,6.8 6.6,9.9 2.8,3.7 6.3,6.2 10.2,7.5 4.2,1.4 8.5,2.9 13.1,1.7 9.2,-2.2 18.4,-4.5 27.6,-5.9 5.9,-0.9 11.3,1.8 15.8,6.8 3.1,3.5 6.1,6.9 9.2,10.4 5.7,6.4 12.6,10.2 20.2,12.2 1,0.2 2.1,-0.4 3.1,-0.6" />
	<path
   id="path12"
   class="st0"
   d="m 486.1,460.8 c -0.2,-0.1 -0.5,-0.4 -0.8,-0.4 -2.9,-0.6 -3.8,-5 -7.6,-4.5 -2.6,0.3 -5.4,-2.4 -8.1,-3.8 -0.8,-0.4 -1.6,-0.9 -2.3,-1.6 -5.4,-4.7 -9.8,-10.7 -14.2,-16.6 -4.4,-5.8 -9.8,-8.3 -16.3,-9.3 -6.6,-1 -12.6,0 -18.7,2.7 -2.5,1.2 -4.7,3.2 -7.1,4.6 -4.7,2.7 -9.4,2.8 -14.4,1.1 -3.9,-1.3 -7.2,-3.5 -10.5,-6 -0.4,-0.3 -1,-0.2 -1.6,-0.4" />
	<path
   id="path14"
   class="st0"
   d="m 549.4,178.1 c -7.9,11 -16.9,30.3 -20.9,43.6 -2.9,9.4 -6.9,18.1 -11.1,26.6 -3.8,7.5 -7.9,14.8 -11.8,22.3 -2.5,4.8 -6.3,7.8 -10.2,10.7 -6.7,4.8 -14,4 -21.3,3 -6.3,-0.9 -12.6,-1.7 -18.9,0.1 -7.8,2.2 -14.7,6.8 -19.3,14.8 -2,3.5 -2.5,8.2 -3.6,12.4 -1.8,7.5 -0.9,15.1 0.3,22.6 0.4,2.4 1.6,4.7 2.6,6.9 0.5,1.1 1.2,1.9 1.8,2.9" />
	<path
   id="path16"
   class="st0"
   d="m 190.6,371.7 c 0.3,1.4 -0.7,5.7 -0.8,6.6 -1,9.5 -6.1,15.4 -11.9,21.1 -2.5,2.5 -4.6,5.5 -6.9,8.4 -2,2.5 -2.9,5.7 -2.6,9.1 0.5,5.2 -0.9,10.1 -1.7,15 -0.8,4.9 -0.2,9.4 1.6,13.4 1.9,4.5 3.5,8.8 3.9,13.9 0.3,3.9 2.9,6 5.7,7.2 2.6,1.1 5.5,1.3 8.1,2.7 5.4,2.9 10.4,0.1 15.5,-0.7 3.4,-0.6 6.7,-1.7 9,-5.2 1,-1.6 0.9,-2.9 0.2,-4.5 -1.5,-3.4 -4,-5.9 -5.1,-9.7 -0.7,-2.7 -1.5,-5.2 0.6,-7.5" />
	<path
   id="path18"
   class="st0"
   d="m 314.2,273.8 c -2.9,3.3 -5,7.5 -8.8,9.9 -5.2,3.3 -7.5,12.2 -5.6,19.1 1,3.7 2.2,7.5 2.5,11.3 0.2,3.1 -1,6.3 -1.4,9.4 -1.7,11.1 -2.2,22 2.8,32.4 2.1,4.4 4.8,7.9 8.4,10.4 1.3,0.9 2.6,1.9 3.9,2.8" />
	<path
   id="path20"
   class="st0"
   d="m 491.3,363.3 c -4,3.7 -4.7,9.2 -6,14.5 -0.4,1.3 -0.4,2.7 -0.8,4.1 -2.5,9.1 -4.6,18.3 -3.9,27.9 0.3,4.1 0.8,8.3 1.9,12.2 1.4,5 2,9.9 1.2,15.1 -0.2,1.6 -0.2,3.2 -0.5,4.7 -1.3,5.7 -0.2,10.7 2.6,15.5 0.5,0.9 0.4,2.2 0.5,3.4" />
	<path
   id="path22"
   class="st0"
   d="m 373.6,402.8 c -0.9,2.6 -1.9,5.2 -2.6,7.8 -1.9,7.4 -5.9,12.7 -10.7,17.7 -5.9,6.2 -12.5,10.3 -20,12.4 -5.2,1.4 -10.5,1.7 -15.8,0.3 -3.6,-0.9 -7,-0.6 -10.5,0.3 -1.1,0.3 -2.6,0.3 -3.6,-0.4 -1.3,-0.9 -2.3,-1.4 -3.7,-0.9 -0.3,0.1 -0.8,-0.1 -1,-0.3 -3.9,-4.1 -6.9,-8.9 -7.5,-15 -0.4,-3.6 0.4,-7.3 0.7,-10.9 0.2,-2.7 0.3,-5.5 0.8,-8.1 1,-4.9 2.6,-9.6 3.3,-14.5 1.3,-9.5 6.7,-15.5 12.2,-21.6" />
	<path
   id="path24"
   class="st0"
   d="m 434.1,350.4 c 2.8,-0.9 5.1,-0.1 7.2,2.9 -1.3,1.1 -2.5,2.2 -3.7,2.9 -2.6,1.5 -3.9,4.3 -4.3,7.3 -0.8,5.2 -2.9,9.4 -6.4,12.4 -3.9,3.4 -7.2,7.3 -10.2,11.6 -4.1,5.8 -9.5,9.4 -14.9,13.3 -3.8,2.8 -7.8,4.3 -12.2,4.9 -8.2,1.2 -15.4,-1.2 -20.7,-9.1 -3.5,-5.2 -6.7,-10.6 -10,-16" />
	<path
   id="path26"
   class="st0"
   d="m 332.5,171.9 c -2.9,6.9 -8.7,11.9 -13.7,15.9 -5.6,4.6 -11.7,7.7 -18.4,9.9 -9.6,3.2 -17.5,9.4 -22.2,20.6 -1.8,4.3 -2.1,9 -2.8,13.5 -0.5,3.8 -0.4,7.7 -0.6,11.6" />
	<path
   id="path28"
   class="st0"
   d="m 274.9,243.4 c -0.6,-0.3 -1.4,-0.4 -1.8,-1 -3.2,-3.6 -6.1,-7.8 -9.6,-10.9 -4.7,-4.2 -10.2,-4.2 -16,-4 -5.4,0.1 -9.5,3.6 -14.1,5.8 -5.7,2.6 -10.8,1.9 -16.4,0.2 -4,-1.2 -7.4,-3.5 -10.8,-6 -0.9,-0.7 -1.9,-1.3 -2.9,-1.9" />
	<path
   id="path30"
   class="st0"
   d="m 433.5,350.7 c -4.3,0.3 -8.5,0.6 -12.9,0.9 -7.8,0.6 -15.4,2.4 -22.9,4.7 -6.1,1.9 -12.3,3.5 -18.4,5.4 -5.1,1.7 -10.2,3.7 -15.2,5.6" />
	<path
   id="path32"
   class="st0"
   d="m 219.7,175.5 c 2.9,-5.7 6.5,-11.9 9.5,-17.5 1.8,-3.5 4.2,-6.5 5.7,-10.1 1.2,-2.9 2.6,-5.4 4.6,-7.5 2.4,-2.6 5.8,-3.2 8.4,-0.9 4.6,4.2 9.6,8.1 11.8,15.3 0.6,2 2.3,3.5 3.4,5.4 3.7,6.1 5.4,13.1 6.3,20.4 0.7,5.5 1.6,11.1 2,16.6 0.5,6.9 0.7,13.8 1.1,20.7 0.5,7.2 1,14.5 1.6,21.6 0,0.2 0.6,3.5 0.8,3.7" />
	<path
   id="path34"
   class="st0"
   d="m 486.9,460.2 c 6.6,-2.6 11.3,-8.3 15.7,-14.2 4,-5.4 7.6,-11.1 11,-16.9 3.6,-6.1 4.6,-13.3 4.3,-20.6 -0.4,-7.7 -2,-15 -4.7,-22 -0.5,-1.4 -0.4,-2 0.5,-3.5 5.1,6.4 7.8,14.2 9.5,22.6 1.6,7.8 -0.5,14.7 -3.1,21.7 -4.5,11.7 -11.6,20.2 -21.1,26 -0.8,0.5 -1.9,0.6 -2.9,0.9" />
	<path
   id="path36"
   class="st0"
   d="m 223.9,202.6 c -1.6,0 -3.1,0 -4.7,0 -3.9,0 -6.4,-3.1 -7.2,-7.5 -1.1,-6.6 1.1,-12.2 3.6,-17.5 2.9,-6.4 5.2,-13.2 9.5,-18.7 0.7,-0.9 0.4,-3 0.3,-4.7 -7.1,4.2 -12.3,10.5 -16.3,18.3" />
	<path
   id="path38"
   class="st0"
   d="M 468.4,245.3" />
	<path
   id="path40"
   class="st0"
   d="m 494.5,281.6 c 0.2,-3.3 0.1,-6.8 0.6,-10 1.2,-7 -4.3,-30.7 -25.1,-35.4" />
	<path
   id="path42"
   class="st0"
   d="m 452.4,383.7 c -1.6,0.2 -0.8,1.4 -0.5,2.2 2.8,8.1 5.8,16 8.3,24.2 1.6,5 2.5,10.2 3.4,15.3 1.7,9.6 5,18.3 11.1,25 0.7,0.8 1.7,1.1 2.6,1.6" />
	<path
   id="path44"
   class="st0"
   d="m 549.4,178.1 c -0.2,0.9 -0.4,1.9 -0.8,2.8 -4.6,10.5 -9.5,20.8 -13.8,31.4 -2.5,6.3 -3.9,13.2 -5.9,19.7 -0.7,2.4 -1.7,4.8 -2.6,7.2 -2.5,7 -4.7,14 -8.3,20.4 -3.3,5.9 -6.9,11.5 -10.1,17.5 -0.2,0.3 0,0.8 0,1.2" />
	<path
   id="path46"
   class="st0"
   d="m 433.5,349.4 c -6.9,-3.6 -12.8,-8.8 -18.5,-14.6 -2.5,-2.5 -5.9,-3.7 -8.8,-5.5 -2,-1.2 -4.3,-2.1 -6,-3.8 -3.4,-3.6 -7.3,-4 -11.6,-3.7 -6.1,0.4 -10.8,4 -15.8,7.5 -6.8,5 -11.7,12 -16.2,19.6 -1.5,2.5 -1.9,6 -2.7,9" />
	<path
   id="path48"
   class="st0"
   d="m 248.4,371.1 c -2.4,-8.8 -7.9,-13.9 -14.4,-17.9 -5.2,-3.1 -10.5,-5.5 -16.3,-6.8 -3.4,-0.8 -6.1,0.9 -9.2,0.6 -1.8,-0.1 -3.7,0.6 -5.5,0.9 -1.6,0.3 -2.2,-1.3 -2.9,-2.5 -1.6,-2.9 -3,-6 -4.8,-8.7 -1.8,-2.8 -3.8,-5.5 -6,-7.8 -2.1,-2.2 -4.6,-2.9 -7.6,-2.8 -2,0.1 -4.2,-1.6 -6.3,-2.7 -4.6,-2.3 -9.3,-2.4 -13.9,-0.4 -2.2,0.9 -3.9,3.6 -5.8,5.5 -0.8,0.7 -1.5,1.9 -2.4,2.2 -4.9,1.4 -7.2,5.6 -8.4,11.1 -1.7,7.6 2.8,14.7 9.5,14.7 1.6,0 3.3,-0.4 4.5,1.7 -0.4,0.8 -0.9,1.6 -1.3,2.4 -0.2,0.2 -0.4,0.4 -0.5,0.6 0.7,0.5 1.4,1.1 2.1,1.6 1,0.6 2.9,0 2.6,2.5 -0.2,1.7 -2.5,3.7 -4.2,3.8 -1.6,0.1 -3.2,0.1 -4.7,0.6 -5.8,1.9 -8.5,7 -8.2,14.1 0.2,5.3 2.3,9.4 5.7,12.1 2.3,1.8 5.5,2.2 8.3,2.6 3.6,0.4 7.3,0 11,0.1 2.6,0.1 4.8,-1.1 7.1,-2.4 1.2,-0.7 2.8,-0.5 4.2,-0.7" />
	<path
   id="path50"
   class="st0"
   d="m 453,384 c 0.8,1.4 1.7,2.7 2.3,4.1 2.3,4.9 4.8,9.7 6.8,14.7 2.7,7.2 5.1,14.5 7.3,21.9 1.7,5.5 2.6,11.1 4.3,16.5 1.5,4.7 3.6,9.2 5.5,13.8" />
	<path
   id="path52"
   class="st0"
   d="m 220.3,239.4 c 8,8.8 17.6,11.6 28.1,10 7.8,-1.2 14.7,1.1 21.6,5.1 2.2,1.4 4.2,3.1 6.3,4.7" />
	<path
   id="path54"
   class="st0"
   d="m 240.2,420.1 c -4.2,-0.6 -8.1,1.1 -12,2.6 -0.7,0.3 -1.1,1.4 -1.6,2.2 -2.5,4.5 -5.1,9 -7.6,13.5 -0.2,0.4 -0.2,0.9 -0.3,1.5 0.8,3.2 1.9,7.4 2.9,11.6 0.9,3.9 3.5,5 6.3,5.6 2.3,0.6 3.4,-1.4 4.8,-3.1 1,-1.2 2.3,-2.4 3.7,-2.8 2.6,-0.9 4.6,-1.9 5.6,-5.4 1.1,-3.7 2.9,-7 4.7,-10.4 1,-2 2.1,-3.8 1.8,-6.3 -0.4,-3.5 -0.7,-7.1 -1.1,-10.6 -0.1,-1 -0.5,-2 -1,-2.8 -4.2,-6.9 -9.6,-11.6 -16.8,-13.3 -5.1,-1.2 -10.2,-2.7 -15.2,-4.7 -2.1,-0.9 -3.8,-4.1 -5.6,-5.8" />
	<path
   id="path56"
   class="st0"
   d="m 500.2,305.9 c -1.6,9.6 -2.9,19.3 -6.3,28.2 -4.6,11.9 -10.1,23.4 -18.4,32.4 -1.1,1.2 -2.1,2.7 -3.2,4.1" />
	<path
   id="path58"
   class="st0"
   d="m 285.6,358.9 c 0.8,2.7 1.7,5.4 1.6,8.5 -0.2,6.4 -0.2,12.7 -0.3,19.1 0,1.3 -0.3,2.5 -0.2,3.7 0.3,5.8 0.6,11.5 1.1,17.3 0.5,6.3 1.8,12.4 4.8,17.8 0.9,1.7 2.2,3.2 3.4,4.7" />
	<path
   id="path60"
   class="st0"
   d="m 201.6,296.1 c 2.7,4 5.4,8.1 8.2,11.9 1.1,1.5 2.6,2.9 4.2,3.7 5.2,2.9 10.5,5.5 15.8,8.2 3.6,1.8 4.2,1.4 5.5,-2.5 0.7,-2.1 1.4,-4.2 1.8,-6.3 0.3,-1.7 0.5,-3.6 0.2,-5.3 -0.5,-3.4 -0.5,-6.5 0.5,-9.8 1.4,-4.4 2,-5.5 6.1,-5.5 3.3,0 6.5,0.6 9.7,0.9 0.5,0.1 0.9,0.3 1.3,0.6 3.1,2.5 6,11.4 5,16 -0.6,2.7 -1.5,5.4 -2,8.2 -0.2,1 0.5,2.3 0.7,3.5 0.9,-0.5 1.8,-0.9 2.6,-1.6 0.5,-0.4 0.8,-1.2 1.3,-1.9 0.9,1.6 1.6,2.9 2.3,4.2 1,1.7 2.5,1.9 3.6,0.3 2.5,-3.2 4.8,-6.6 7.1,-10.1 2,-3.1 4.3,-5.4 7.9,-5 4.3,0.5 8.5,0.5 12.2,4.5 2.6,2.9 1.7,6.1 2,9.2 -2.8,3.2 -1,6.8 -0.4,10 1.1,7 -2.1,18 -7.2,22 -5.1,4 -10.1,8.1 -15.2,11.9 -1.2,0.9 -2.9,1.8 -4.2,1.5 -3,-0.7 -5.1,0.9 -7.1,3 -1.9,2.1 -3.7,3 -6.3,2.6 -2.9,-0.5 -6.1,-0.5 -8.7,2.1 1.4,6.9 -2.7,13.6 -7.9,16.2 -3.3,1.7 -6.6,-0.7 -8.1,-5.2 -0.8,-2.5 -1.6,-5 -4.5,-4.7" />
	<path
   id="path62"
   class="st0"
   d="m 482.4,293 c -2.9,-0.4 -5.3,1.6 -7.3,3.3 -4.8,4.2 -9.5,8.7 -13.7,13.7 -5.7,7 -10.2,15 -12.6,24.4 -1,4 -1.3,8.1 -1.9,12.2" />
	<path
   id="path64"
   class="st0"
   d="m 98.3,282 c -5.4,6.3 -7.5,14 -6.3,22.9 0.2,1.7 1.1,3.1 1.5,4.7 1.3,4.9 2.5,9.9 3.7,14.7 0.7,2.9 1.7,5.7 4.2,6.8 4.2,2 7.8,6.8 10.5,11" />
	<path
   id="path66"
   class="st0"
   d="m 128,264.5 c -1.5,-1 -3.6,-1.3 -5.1,0.3 -1.3,1.4 -2.9,0.2 -4.1,1.8 -2,2.9 -4.5,4.1 -7.6,3.8 -2.8,-0.3 -1.7,2.8 -2.5,4.5 0.2,0.1 -0.1,-0.1 0,0 1.3,3.4 4.2,4.1 6.9,3.6 3.8,-0.8 6.3,1.6 8.4,4.7" />
	<path
   id="path68"
   class="st0"
   d="M 143.6,266.3" />
	<path
   id="path70"
   class="st0"
   d="m 159.6,287.3 c -2.8,1.7 -5.5,3.6 -8.4,5 -7,3.4 -14.1,6.5 -21.3,9.8 -4,1.8 -7.3,4.7 -10,8.8 -1.9,3 -3.9,6 -6.1,8.8 -1,1.2 -2.9,4.7 -4,5.8" />
	<path
   id="path72"
   class="st0"
   d="m 164.8,285.7 c -1.3,2.8 -3.6,4.8 -3.9,8.5 -0.1,1.2 -1,4.2 -3.5,2.9 -0.2,-0.1 -0.7,0.3 -1,0.6 -3.1,3.2 -6.3,6.3 -9.2,9.8 -2.9,3.8 -5.4,8.2 -8.2,12.2 -2,2.7 -4.5,5 -6.2,7.9 -1.7,2.8 -2.7,6.2 -4,9.3 -0.7,1.6 -1.4,3 -2.1,4.6 -1.1,-0.8 -2.1,-2.1 -2.9,-1.9 -3.5,0.6 -5.1,-1.8 -6.9,-4.7 -1,-1.6 -2.6,-2.9 -4.2,-3.7 -1.3,-0.7 -1.5,-1.7 -1.9,-3.2 -0.5,-1.9 -1.7,-3.6 -2.8,-5 -1.4,-1.7 -3.3,-2.5 -3.6,-5.7 -0.2,-1.9 -2.2,-3.7 -3.5,-5.3 -1.4,-1.9 -1.9,-3.7 -1.4,-6.3 0.4,-2.4 0.1,-5 0.1,-7.5 0.1,-1.2 0.1,-2.4 0.5,-3.5 0.9,-2 2,-7 3.1,-8.8" />
	<path
   id="path74"
   class="st0"
   d="m 477.7,389.9 c -4,-3.6 -6.2,-8.8 -8.7,-13.8 -1.6,-3.2 -3.3,-6.3 -5,-9.4 -5.1,-8.7 -17.9,-11.3 -25.7,-6.3 -0.8,0.5 -1.6,1.2 -2.3,1.9" />
	<path
   id="path76"
   class="st0"
   d="m 363.4,372 c 9.6,1.8 19.2,2 28.9,1.3 5.7,-0.4 11.4,-0.6 17.1,-0.9 0.5,0 1,0.4 1.6,0.6" />
	<path
   id="path78"
   class="st0"
   d="m 398.8,205.7 c -1.6,0.6 -3.1,0.8 -4.7,1.3 -2.5,0.8 -14.7,5.1 -16.7,12.9" />
	<path
   id="path80"
   class="st0"
   d="m 343.9,385.9 c -5.3,11.6 -8.1,14.6 -16.5,23.2 -6.5,6.6 -12.6,13.9 -17.9,21.9 -0.2,0.4 -0.7,0.6 -1,0.9" />
	<path
   id="path82"
   class="st0"
   d="m 306.4,440.4 c -1.5,2.9 -2.6,6.3 -4.5,8.7 -5.4,7 -12.3,10.8 -20.2,11.3 -4.6,0.3 -8.7,-2.6 -12.8,-4.6 -1.9,-0.9 -3.7,-2.3 -5.5,-3.5" />
	<path
   id="path84"
   class="st0"
   d="M 358.4,202.6" />
	<path
   id="path86"
   class="st0"
   d="m 350.5,141.4 c -0.2,3.6 0.3,10.2 0.3,13.8 0.1,5.7 0.2,11.3 0.5,17 0.5,8.8 1.4,17.5 2,26.4" />
	<path
   id="path88"
   class="st0"
   d="m 376,326.6 c -0.5,-1.8 -1.4,-3.5 -1.5,-5.3 -0.4,-6.3 -2.8,-11.1 -7.1,-14.8 -3.6,-3.1 -6.9,-6.8 -10.5,-10 -4.9,-4.3 -10.7,-6.2 -16.8,-5.9 -2.4,0.1 -4.2,-1 -6,-2.6 -0.7,-0.6 -1.5,-1.2 -2.1,-1.9 -4.6,-6.3 -11,-9.3 -17.1,-12.9" />
	<path
   id="path90"
   class="st0"
   d="m 209.1,172.8 c -10.4,26.5 -3,29.8 -1.9,32 4.3,4.7 6.1,3.8 8.1,3.7 3.7,-0.3 4.2,-0.5 7.1,-3.7 1.3,-1.3 2.3,-2.9 3.4,-4.4 0.9,-1.2 1.7,-2.3 2.6,-3.5" />
	<path
   id="path92"
   class="st0"
   d="m 221.8,137.1 c -3.3,2.2 -5.2,5.8 -7,9.4 -3,6 -5.6,12.3 -6.1,19.4 -0.1,2.3 -0.2,4.7 0.4,6.8" />
	<path
   id="path94"
   class="st0"
   d="m 361.8,159.6 c 0,2.8 -0.1,5 -0.1,7.2 0,6.4 -0.4,12.8 -0.4,19.1 0,6.7 0.3,13.4 0.5,20.1 0.2,6.5 0.5,12.9 2,19.1 0.4,1.4 0.3,2.9 0.5,4.4 0.7,3.7 1.6,4.8 4.7,5.3 6.6,1.2 11.4,6.5 12,14.5 0.5,7.3 0.5,14.7 0.6,21.9 0.1,3.3 0,3.3 -0.1,6.7" />
	<path
   id="path96"
   class="st0"
   d="m 120.1,243.3 c -3.7,-0.9 -6.1,-3.5 -9.9,-4.2 -2.7,-0.6 -5.4,-0.4 -8.2,0.5 -1.6,0.5 -3.5,-0.1 -5.2,-0.1 -1.6,0 -3.4,-0.4 -4.7,0.4 -3.7,2.6 -6.7,6.1 -7.7,11.5 -0.8,4.5 -2,8.9 0.5,13.2 1.2,1.9 2.2,4.1 3.4,5.9 2.1,3 3.7,6.3 4.5,10.1 0.1,0.6 1.1,1.2 1.8,1.5 0.8,0.4 1.7,0.4 2.6,0.6" />
	<path
   id="path98"
   class="st0"
   d="m 98.6,281.4 c 2.6,-4.7 5.3,-9.3 7.9,-14.1 3,-5.6 7.1,-8.8 12.9,-8.8 5.5,0 11.3,0.3 16.9,1.4 5.1,0.7 9.1,2.7 13.8,4 3.6,0.9 7,2.7 10.5,4" />
	<path
   id="path100"
   class="st0"
   d="m 312.2,207.3 c -1.6,1.9 -3.5,3.5 -4.6,5.7 -2.4,4.7 -5.5,8.6 -8.7,12.5 -4.5,5.5 -9.8,10.3 -12.9,17.3 -1.4,3.2 -2.5,6.5 -3.7,9.7 -0.5,1.4 -0.7,2.9 -1.1,4.4" />
	<path
   id="path102"
   class="st0"
   d="m 155.6,298.3 c -2.9,1.4 -5.8,2.8 -8.7,4.4 -6.3,3.6 -12.3,7.5 -17.3,13.4 -0.8,1 -1.9,1.9 -2.3,3.2 -2.3,6.3 -6,11 -11.1,14.1" />
	<path
   id="path104"
   class="st0"
   d="m 285.6,358.9 c 3.2,9.1 7.2,26.2 6.9,36.1 -0.2,6.3 0.3,12.7 0.5,19.1 0,0.7 1.4,3.7 1.6,4.4" />
	<path
   id="path106"
   class="st0"
   d="m 332.3,131.5 c 1.6,4.9 1.8,10.4 2.8,15.6 0.9,4.7 2.1,9.4 3.1,14.1 1.9,9 3.7,18 5.8,27 1.1,4.6 3.7,12.4 5.1,17" />
	<path
   id="path108"
   class="st0"
   d="m 354,232.5 c -7.5,3.7 -11.4,11.2 -14.7,19.5 -3.2,8.1 -3.2,16.5 -2.4,25.1 0.2,2.7 -0.1,5.4 -0.2,8.1" />
	<path
   id="path110"
   class="st0"
   d="m 264.9,409.1 c 3.3,-1.2 5.5,-4.2 7.6,-7.2 2.1,-3.1 2.5,-3.1 5.3,-0.9 5.9,4.6 8.2,11.6 8.9,19.5 0.6,6.6 3.1,12.2 6.2,17.5 1.2,2.1 3.7,3.1 5.5,4.7" />
	<path
   id="path112"
   class="st0"
   d="m 239.4,291.4 c -0.2,-0.9 -0.5,-1.9 -0.5,-2.8 0.1,-3.1 0.1,-6 -2.3,-8.3 -0.8,-0.7 -1.1,-2.1 -0.4,-3.7 1.3,-3.1 -0.3,-7.5 -2.8,-9.4 -1.5,-1.2 -3.2,-2.4 -4.2,-4.1 -1.2,-2.3 -2.9,-3.1 -4.8,-3.7 -3.7,-1.2 -7.3,-3.2 -11,-3.6 -5.5,-0.6 -10.6,1.4 -14.4,6.8 -2.2,2.9 -1.1,6.3 -1,9.4 0.1,1.4 0.6,2.7 1,4.1 0.9,3.2 0.5,6.1 -0.5,9.4 -0.6,-0.5 -1,-1 -1.6,-1.2 -1,-0.4 -2.5,-1.1 -3.1,-0.5 -1.1,1 -2,2.2 -1.8,4.6 0.5,4.3 0.3,8.8 0.3,13.2 0,0.5 -0.6,1.2 -1,1.5 -3.8,2.9 -7.5,5.8 -12.3,5.7 -0.4,0 -0.9,0.2 -1.3,0.3" />
	<path
   id="path114"
   class="st0"
   d="m 405.7,340.7 c -4.2,-1 -7.8,1.5 -11.6,2.9 -7.9,2.9 -15.3,7.2 -22.1,12.8 -1.2,1 -2.5,1.9 -3.7,2.8" />
	<path
   id="path116"
   class="st0"
   d="m 328,304.3 c 1.9,9.1 4.6,17.9 8.7,26 2.3,4.7 4.3,9.5 6.6,14.1 0.9,1.7 2.3,3.2 3.4,4.7 2.1,3 4.1,6.2 4.5,10.4" />
	<path
   id="path118"
   class="st0"
   d="m 233.4,321.2 c -0.2,1.9 -0.6,3.7 -0.8,5.7 -0.4,4.2 0.7,7.9 2.1,11.6 0.5,1.3 0.7,2.7 -0.3,3.4 -0.5,0.4 -1.5,-0.3 -2.3,-0.5 -2.9,-0.9 -5.9,-2.3 -8.9,-0.3 -2.4,1.5 -5.4,1.8 -7.1,4.7" />
	<path
   id="path120"
   class="st0"
   d="m 301.9,440.8 c -3.7,0.8 -5.3,5 -8.4,7 -5.9,3.7 -12.2,5 -18.7,5.2 -3.3,0.1 -6.5,-0.8 -9.7,-0.9 -7.8,-0.1 -12.5,-6.5 -17.6,-12 -0.7,-0.7 -1.2,-1.4 -1.9,-2.2" />
	<path
   id="path122"
   class="st0"
   d="m 350.5,141.4 c -0.6,2.6 -1.9,5.5 -2.3,8.2 -1.5,10.2 -1,20.5 -1.1,30.8 0,0.6 -0.5,1.3 -0.7,1.9" />
	<path
   id="path124"
   class="st0"
   d="m 361.8,158.5 c -0.5,3.7 -1.8,4.9 -2,8.7 -0.5,8.9 -0.8,17.8 -1.1,26.7 -0.2,4.9 -0.5,9.9 -0.5,14.7 0,3.7 0.4,7.5 0.5,11.3 0.1,3.2 -0.5,6.3 0.2,9.4 0.5,2.2 0.7,4.6 1.1,6.9" />
	<path
   id="path126"
   class="st0"
   d="m 230.5,156.8 c 0.1,0.4 0.4,0.9 0.2,1.2 -2.5,8.5 -1.9,17.3 -2.5,26 -0.4,4.5 0.8,8.6 0.7,12.9 0,0.6 0.6,1.2 0.5,1.8 -0.1,0.9 -0.5,1.8 -0.4,2.6 0.7,4.1 -0.3,7.6 -2.1,11" />
	<path
   id="path128"
   class="st0"
   d="m 154.3,282.3 c -1.4,3.6 -4.6,4.7 -7.1,4.7 -4.7,0.1 -8.6,2.5 -12.9,4 -3.1,1.1 -6.3,1.7 -9.5,2.6 -1.1,0.3 -3.7,2.3 -4.8,2.7" />
	<path
   id="path130"
   class="st0"
   d="m 324.8,315.9 c 1.8,5.6 3.6,11.4 5.5,16.9 2.8,8 6.6,15.3 11.3,22" />
	<path
   id="path132"
   class="st0"
   d="m 157.6,305.5 c -2.3,5.8 -5.4,8.6 -7.5,14.5 -2.5,7 -4.8,14.2 -7.1,21.4" />
	<path
   id="path134"
   class="st0"
   d="m 374.7,278.6 c -2.3,0.9 -4.5,2.3 -6.9,2.7 -8.2,1.5 -16.5,2.6 -23.9,-3.7 -0.5,-0.4 -1.2,-0.4 -1.8,-0.6" />
	<path
   id="path136"
   class="st0"
   d="m 339.5,379.3 c -2,2.9 -3.9,6 -6.1,8.8 -6.1,7.8 -12,16 -19.7,22 -1.5,1.2 -3.1,2.1 -4.7,3.2" />
	<path
   id="path138"
   class="st0"
   d="m 355.8,236.5 c -3.3,-8.3 -5.2,-17 -6.1,-26 -0.7,-6.9 -1.7,-13.8 -2.3,-20.7 -0.7,-7.8 -3.9,-14.5 -5.4,-21.9 -1.3,-6.3 -2.8,-12.4 -4.5,-18.5 -0.5,-1.9 -2.5,-4.9 -3.3,-6.6" />
	<path
   id="path140"
   class="st0"
   d="m 348.4,394 c -0.5,1.2 0.7,-1.1 0,0 -7.3,10.7 -14.7,21.4 -22,32 -0.1,0.1 -0.4,0.2 -0.5,0.4" />
	<path
   id="path142"
   class="st0"
   d="m 478.5,312.4 c -5.7,10.9 -7.9,22.9 -8.9,35.4" />
	<path
   id="path144"
   class="st0"
   d="m 545.7,213.9 c -0.2,0.9 -0.2,1.8 -0.5,2.5 -3.7,7.8 -7.3,15.7 -11,23.6 -1.3,2.9 -2.2,6.2 -3.8,9.1 -1.1,2.1 -2.9,3.5 -4.4,5.4 -1.8,3.2 -12,22.4 -16.6,23.8 -2,1.4 -4.2,2.5 -6.3,3.7" />
	<path
   id="path146"
   class="st0"
   d="m 260,156 c 0.9,3.5 -0.5,9.8 -1.8,13 -2,5.2 -3.8,10.5 -7.2,14.8 -3.7,4.6 -9,5.5 -14.2,2.9" />
	<path
   id="path148"
   class="st0"
   d="m 545.7,213.9 c -3.1,4.4 -6.6,10.4 -9.5,15 -3.9,6.3 -7,13.3 -12,18.5" />
	<path
   id="path150"
   class="st0"
   d="m 160.8,266.6 c -2.8,-0.6 -24.6,-21.2 -30.4,-20.7 -0.8,-0.3 -4.5,-1 -5.3,-1.2 -1.1,-0.3 -3.9,-1.2 -5.1,-1.4" />
	<path
   id="path152"
   class="st0"
   d="m 123.8,240.9 c -4.4,-1.9 -8.7,-4.2 -13.2,-5.5 -4.7,-1.4 -9.4,-0.1 -13.9,1.8 -0.4,0.2 -4.3,2.2 -4.7,2.7" />
	<path
   id="path154"
   class="st0"
   d="m 128,264.5 c 4.4,5.8 6,6.2 6.1,7.6 1,3.2 0.7,4 -1.9,6.9 -1.2,1.4 -2.2,3.1 -3.4,4.3 -1.3,1.2 -2.6,2.3 -4.7,-0.1" />
	<path
   id="path156"
   class="st0"
   d="m 254.3,185.7 c 0.7,3.7 -1.5,9.4 -3,12.3 -2.4,4.7 -5.8,7.5 -10.3,8.8 -4.2,1.1 -7.5,-0.7 -9.5,-5.3 -0.3,-0.7 -3.1,-2.9 -1.3,-1.9" />
	<path
   id="path158"
   class="st0"
   d="m 344.7,347.9 c -0.8,1.7 -0.8,2.8 0.3,4.4 1,1.4 2,2.6 3.1,3.8 3.1,3.5 5.1,7.7 5.2,12.4 -6.2,0.6 -12.5,1.2 -19,1.7 1.3,2.5 2.8,3.5 4.8,3.1 2.8,-0.6 5.4,-1.7 8.1,-2.4 0.8,-0.2 1.7,0 2.6,0" />
	<path
   id="path160"
   class="st0"
   d="m 123.8,240.9 c 7.1,2.2 17.3,5.8 23.4,11 2.6,2.2 5.1,4.7 7.3,7.2 2.1,2.3 4.3,4.2 7.1,5" />
	<path
   id="path162"
   class="st0"
   d="m 193.9,357.3 c 4.9,4.2 9.8,8.5 14.7,12.5 3.4,2.7 6.6,5.6 9.2,9.4 0.5,0.6 1.4,1.3 2,1.2 1.7,-0.1 3.3,-0.7 5,-1.2" />
	<path
   id="path164"
   class="st0"
   d="m 232.5,152.6 c 0.4,3.2 1.3,9.3 1.6,12.4 0.1,1 0.1,2 0.2,3 0.4,5.1 0.8,10.3 1.6,15.4 0.4,2.5 1.7,4.8 2.5,7.3 1.9,5.5 7.8,4.3 11.3,1.6 3.6,-2.8 5.1,-7 6,-11.6 0.3,-1.5 0.5,-3.5 2.3,-3.1 1.6,0.4 2.1,2.4 1.3,5 -1.3,4 -3.3,9.5 -6.6,12.1" />
	<path
   id="path166"
   class="st0"
   d="m 365.8,254.1 c -2.5,1.3 -4.9,2.6 -7.3,3.7 -5.2,2.4 -10.2,1.2 -15.2,-0.9 -0.4,-0.1 -0.7,-0.2 -1,-0.3" />
	<path
   id="path168"
   class="st0"
   d="m 511.8,347.9 c -0.2,7.4 -0.5,14.9 -0.8,22.3 -0.2,4.5 0.2,8.8 2.1,12.9" />
	<path
   id="path170"
   class="st0"
   d="m 260,156 c -3.5,2.7 -3.3,6.5 -4.3,9.9 -1.8,6 -5.2,10.1 -10.2,12.2 -1.4,0.6 -2.7,0.4 -4,-0.9 -2.9,-3 -6.2,-7.9 -7.5,-12.2" />
	<path
   id="path172"
   class="st0"
   d="m 318.5,329.7 c 5.1,7.2 10.2,14.5 15.2,21.6 1.2,1.7 2.5,3.4 3.7,5" />
	<path
   id="path174"
   class="st0"
   d="m 512.3,384.3 c -3.1,1.2 -6.1,2.3 -9.2,3.5 -4.5,1.7 -8.9,1 -13.4,0.3" />
	<path
   id="path176"
   class="st0"
   d="m 185,421.3 c 6,2.6 9.6,8.8 14.7,12.9 2.4,1.9 4.6,4.3 6.9,6.5 1.7,1.7 4,1.2 5.2,-1.3 1.6,-3.1 2.5,-4.2 5.8,-0.9" />
	<path
   id="path178"
   class="st0"
   d="m 201.1,347.9 c -2.5,-0.6 -5.1,-0.8 -7.3,-2 -2.2,-1.2 -3.9,-3.3 -6.1,-5.2 -1,1.9 -0.5,4.2 0.3,6.3 1.7,4.5 0.8,8.6 -0.5,12.9 -2.3,8 -2.5,16.2 -0.6,24.4 0.1,0.5 0.5,0.9 0.8,1.3" />
	<path
   id="path180"
   class="st0"
   d="m 182.9,331 c -3.6,8.4 -7.1,16.8 -11,25.7 0.8,0 1.5,0.3 2,-0.1 4.5,-2.9 6.6,-4.5 11.1,-7.5" />
	<path
   id="path182"
   class="st0"
   d="m 180.3,242.8 c -5.4,3.7 -10.5,7.8 -14.4,13.8 -1.4,2.2 -2.8,4.7 -3.9,7.2 -1.1,2.6 -1.9,5.5 -2.9,8.1 -1.4,3.3 -1.2,4.7 0.2,7.6 0.9,1.8 1,4.1 1.4,6.2" />
	<path
   id="path184"
   class="st0"
   d="m 341.6,357.6 c -2.5,-0.3 -4.9,-1.1 -7.3,-0.9 -4.6,0.4 -8.4,3 -12.1,6.2 -1.9,1.7 -3.7,3.5 -5.5,5.3" />
	<path
   id="path186"
   class="st0"
   d="m 127,341.6 c 2,2.7 2.7,2.9 5.2,1.2 1.6,-1.1 3.2,-2.4 4.9,-3.8 1.7,0.8 3.7,1.7 5.6,2.7 -1.3,7.2 -6.4,11.2 -12.6,12.3 -5.3,0.9 -9.1,-2 -12.8,-5.2 -2,-1.7 -3.6,-4.3 -5.3,-6.5" />
	<path
   id="path188"
   class="st0"
   d="m 356.1,366.1 c 3.1,-0.5 6.1,-0.9 9.2,-1.7 1.3,-0.3 2.4,-1.2 4.2,-2.2 -3.5,-1.2 -8.7,0.5 -10.7,2.9" />
	<path
   id="path190"
   class="st0"
   d="m 210.5,267.3 c 2.1,4.1 4.2,8.1 6.3,12.2 0.5,1 1,2.3 1,3.5 -0.1,2.2 -0.2,4.5 -0.8,6.5 -0.3,1 -1.4,2 -2.3,2.5 -3.8,2.1 -7.7,4 -11.6,6" />
	<path
   id="path192"
   class="st0"
   d="m 212.4,311.5 c 0.9,2.4 1.7,4.8 2.6,7.2 2.1,5.5 4.2,11.1 6.3,16.6" />
	<path
   id="path194"
   class="st0"
   d="m 184.5,367.4 c -1.3,-0.1 -2.6,-0.3 -3.9,-0.3 -4,0.1 -8.1,0.2 -12.1,0.3 -1.1,0 -3.4,0.3 -4.6,0.1" />
	<path
   id="path196"
   class="st0"
   d="m 367.6,234.9 c -5.3,7.3 -13.1,8.1 -19.1,1.9" />
	<path
   id="path198"
   class="st0"
   d="m 96.8,239.7 c -0.7,2.7 -3.6,3.6 -3.7,6.9 -0.2,2.8 -2,5.5 0.3,8.3 0.3,0.4 -0.1,1.7 -0.2,2.4 -0.4,1.9 -0.7,3.7 1.1,5 0.2,0.2 0.5,0.6 0.5,0.9 -0.2,5.1 4.6,9.4 7.2,12.6" />
	<path
   id="path200"
   class="st0"
   d="m 214,374.5 c -6.1,0.6 -11.4,4.1 -17.6,1.5" />
	<path
   id="path202"
   class="st0"
   d="m 176.1,231.5 c -5.7,5.3 -9.5,12 -10.5,20.7 -0.1,1.1 0.1,2.3 0.2,3.5" />
	<path
   id="path204"
   class="st0"
   d="m 504,348.5 c 0.1,-2 -1.1,-2.7 -2.3,-2.2 -3.7,1.9 -7.9,3.5 -9.7,8.4 -0.8,2.4 -1.9,4.9 -0.3,7.5" />
	<path
   id="path206"
   class="st0"
   d="m 109.1,250.9 c 0.7,0.9 2,1.8 2,2.5 -0.2,2.4 -1.6,3.9 -3.6,4.7 -2.7,1.2 -10.2,3.7 -12.8,5" />
	<path
   id="path208"
   class="st0"
   d="m 326.4,191 c 2.6,0.3 5.2,0.6 7.9,0.9 3.5,0.4 7,0.6 10.5,0.9" />
	<path
   id="path210"
   class="st0"
   d="m 346.9,374.8 c -3,1.9 -5.5,5.4 -6.4,9.3 1.2,-0.9 2.8,-0.3 3.7,-3 1.5,-4.5 3.7,-8.8 7.9,-10.8 0.3,-0.1 0.5,-0.6 0.8,-0.9" />
	<path
   id="path212"
   class="st0"
   d="M 100.2,304.8" />
	<path
   id="path214"
   class="st0"
   d="m 104.5,317.2 c 2.8,-3.3 7.1,-9.1 8.7,-13.5 0.5,-1.4 1.7,-2.7 2.8,-3.7 1.2,-1.2 2.5,-2.2 4.2,-3.6 -1.1,-0.7 -1.9,-1.8 -2.6,-1.7 -2.1,0.4 -13.7,3.7 -18,10.9" />
	<path
   id="path216"
   class="st0"
   d="m 265.4,351.4 c 1.8,5.2 5.2,7.5 7.4,11.3" />
	<path
   id="path218"
   class="st0"
   d="m 629,194.8 c -0.9,0.4 0,0 -1.3,1.3" />
	<path
   id="path220"
   class="st0"
   d="m 226.8,380.5 c 0.8,1.8 1.1,3.3 -1.3,3.2 -1.7,-0.1 -1.5,1.5 -1.2,2.5 0.2,0.9 1.1,1.6 1.7,2.2 0.7,0.7 1.6,1.3 2.3,1.9 4.5,3.5 6.4,6.6 1.8,11.9" />
	<path
   id="path222"
   class="st0"
   d="m 362.4,202.9 c 6.4,3.9 11.7,9.1 15,17" />
	<path
   id="path224"
   class="st0"
   d="M 165.6,349.8" />
	<path
   id="path226"
   class="st0"
   d="M 148.3,338.4" />
	<path
   id="path228"
   class="st0"
   d="m 259.9,320 c 0.1,3.5 0.2,6.9 0.2,10.4 0,1.7 -0.5,3.4 -0.5,5 0,2.4 -0.3,4.7 1.2,7 1.8,2.7 3.1,6 4.5,9.1" />
	<path
   id="path230"
   class="st0"
   d="m 225.7,352.1 c -1.5,3.7 -1.9,5.6 -3.8,8.9 -2.1,3.6 -1,6.6 0.1,9.8 1,2.7 2,5.5 3.1,8.1 0.2,0.5 0.7,1.2 1,1.2 0.4,0.1 1.1,-0.4 1.3,-0.9 2.8,-6.8 7.5,-11.9 11.6,-17.5" />
	<path
   id="path232"
   class="st0"
   d="m 122,289.6 c -2.2,-1.4 -5.5,-5 -8.4,-4.2 -1.1,0.4 -2.3,1 -3.4,1.2 -2.1,0.4 -4.7,-1.1 -6.8,-0.9" />
	<path
   id="path234"
   class="st0"
   d="m 190.6,371.7 c 3.8,7.1 11.6,16.1 18.1,20.1" />
	<path
   id="path236"
   class="st0"
   d="m 316.4,281.1 c 1.4,6.7 3.3,14.2 4.7,20.9" />
	<path
   id="path238"
   class="st0"
   d="M 143.6,266.3" />
	<path
   id="path240"
   class="st0"
   d="m 269.5,385.9 c 0.4,-2 1.1,-5 1.4,-7 0.2,-1.3 0.5,-2.6 1.2,-3.9 2.1,5.1 5.9,9.7 3,16.1 -1.1,2.4 -0.7,5.2 -0.8,7.8" />
	<path
   id="path242"
   class="st0"
   d="m 259.1,340.7 c -1.1,3.7 -3.7,10.6 -4.7,14.5 -0.8,2.8 -1.4,5.6 -2.1,8.5" />
	<path
   id="path244"
   class="st0"
   d="m 261.7,379.2 c 3.6,0.6 6.1,3.4 7.8,6.7 1,2.1 1,5 1.4,7.5 0.1,0.4 0.2,0.9 0.3,1.4 -1.5,2 -1.1,3.1 -3.9,3.9 -1.7,0.6 -3.2,0.1 -3.8,0.6 -0.8,0.6 0.8,-0.6 0,0" />
	<path
   id="path246"
   class="st0"
   d="m 363.2,137.3 c -0.2,3.2 -0.7,9.1 -0.8,12.2 -0.2,3.3 -0.4,6.7 -0.5,10.1" />
	<path
   id="path248"
   class="st0"
   d="m 351.9,371.1 c 0,0.6 0.2,1.4 -0.1,1.9 -2,3.2 -1.9,7.2 -2.8,10.7 -0.5,1.9 -0.6,4.2 -0.1,6.3 2,-4.6 3,-9.4 2.3,-14.5" />
	<path
   id="path250"
   class="st0"
   d="m 109.1,250.9 c -3.5,0.7 -7,1.5 -10.5,2.2 -1.7,0.3 -3.5,0.2 -5.2,0.4" />
	<path
   id="path252"
   class="st0"
   d="m 161.9,295.8 c -1.1,3.7 -4.9,5.6 -4.3,9.7 0.9,5.9 3.7,10.7 5.6,16" />
	<path
   id="path254"
   class="st0"
   d="m 310.3,309.9 c 0.8,5.8 4.1,10.2 6.1,15.4 0.4,1.1 1.6,3.4 2.1,4.4" />
	<path
   id="path256"
   class="st0"
   d="m 230.7,209.5 c 1.3,1.7 3.1,2.6 4.2,4.5 0.5,0.9 0.2,2.4 -0.1,3.7 -2.6,-1.9 -3.5,-4.9 -4.1,-8.2 -0.2,-1.1 -1.4,-7.1 -1.7,-8.2" />
	<path
   id="path258"
   class="st0"
   d="m 291.2,330.6 c -5.2,1.1 -10.4,2.1 -15.5,3.2" />
	<path
   id="path260"
   class="st0"
   d="m 158.4,273.5 c -4.9,-2.2 -27,-10.1 -32.4,-9.9" />
	<path
   id="path262"
   class="st0"
   d="m 182.9,294.2 c -2.5,2.5 -4.9,5 -7.3,7.5 -2.2,2.2 -4.5,4.4 -6.8,6.6" />
	<path
   id="path264"
   class="st0"
   d="m 231.8,281.1 c -2.6,1.9 -5.2,3.9 -7.9,5.6 -2.3,1.5 -4.7,2.7 -7.1,4.1" />
	<path
   id="path266"
   class="st0"
   d="m 191.4,405 c 4.4,3 8.8,6 13.1,9.1 1.7,1.3 3.4,2.8 5,4.4 0.5,0.4 0.8,1.4 0.8,2.2 0.2,4.6 0.2,9.2 0.3,13.8 0,1.1 -0.8,8.6 -0.5,5.9" />
	<path
   id="path268"
   class="st0"
   d="m 491.9,363 c 4.7,5.5 11.4,7.1 15.1,3.4 -2,-4.1 -5.8,-4.5 -9,-6.2" />
	<path
   id="path270"
   class="st0"
   d="m 221.8,137.1 c -0.6,3.8 -1.4,10.6 -2,14.5 -0.2,0.9 0.1,1.9 0.2,2.8" />
	<path
   id="path272"
   class="st0"
   d="M 200.3,392.4" />
	<path
   id="path274"
   class="st0"
   d="m 196.6,432.3 c -2.1,0.9 -4.2,2.3 -6.3,2.7 -2.1,0.4 -4,1.7 -6.3,1.9 -2.8,0.2 -5.6,2.1 -8.4,3.2 -1.7,0.7 -3.5,1.3 -5.2,1.9" />
	<path
   id="path276"
   class="st0"
   d="m 375.2,265.4 c -2.7,1.1 -5.4,2.4 -8.2,3 -1.7,0.4 -3.7,-0.1 -5.5,-0.2" />
	<path
   id="path278"
   class="st0"
   d="m 205.5,348.2 c -0.8,5.3 -1.6,10.6 -2.3,16" />
	<path
   id="path280"
   class="st0"
   d="M 179.3,453.3" />
	<path
   id="path282"
   class="st0"
   d="m 205.5,449.9 c -3.6,2 -7.3,3.8 -10.7,6" />
	<path
   id="path284"
   class="st0"
   d="m 211.8,403.1 c -0.6,5 -1.2,10.1 -1.8,15.1" />
	<path
   id="path286"
   class="st0"
   d="m 238.1,307.4 c 0.8,0.9 1.6,1.8 2.3,2.8 2.6,3.7 5.2,7.3 7.9,11" />
	<path
   id="path288"
   class="st0"
   d="m 194.8,455.9 c -4.1,2.5 -10.9,6.2 -15,8.7" />
	<path
   id="path290"
   class="st0"
   d="m 357.6,361.4 c 2.9,-3.7 5.4,-7.8 7.3,-12.4 -2.5,-1 -3.7,-0.5 -4.9,2.7 -1.1,3.1 -1.7,6.5 -2.7,9.7 -0.7,2.2 -2.2,6.1 -3.1,8.2" />
	<path
   id="path292"
   class="st0"
   d="m 500.2,357.6 c 1.1,-2.7 2.1,-5.5 3.1,-8.1 0.1,-0.2 0.4,-0.6 0.5,-0.6 1.9,0.1 3.9,0.2 6.3,0.4 -1.4,3.3 -2.5,5.8 -3.7,8.4" />
	<path
   id="path294"
   class="st0"
   d="m 193.5,314.3 c 5.7,8.5 11.7,16.5 16.3,26" />
	<path
   id="path296"
   class="st0"
   d="m 353.4,198.5 c 0.2,2.7 0.1,5.6 0.9,8.1 1.5,5 1.6,10.1 2.5,15.1 0.2,0.9 1.4,3.2 1.7,4" />
	<path
   id="path298"
   class="st0"
   d="m 234.4,297 c -3.7,0.7 -7.5,1.4 -11.3,2.2 -2.5,0.6 -4,-1.7 -6,-2.6 -1.4,-0.6 -4.7,-1.9 -6,-2.8" />
	<path
   id="path300"
   class="st0"
   d="m 192.1,302.7 c 1.1,5.3 1.1,10.6 0.1,16 -0.6,3.2 -0.6,6.5 -0.8,9.7" />
	<path
   id="path302"
   class="st0"
   d="m 538.2,254.1 11.2,-17.6 c -2.3,1.4 -12.5,9.3 -14.9,10.7 -1.3,0.8 -2.6,1.4 -3.9,2.2" />
	<path
   id="path304"
   class="st0"
   d="m 161.9,295.8 c -0.2,0.7 -0.4,1.5 -0.8,2.2 -1.1,1.8 -1.1,3.4 0.2,5 1.3,1.7 2.5,3.5 3.7,5.3" />
	<path
   id="path306"
   class="st0"
   d="m 118.9,266.6 c 0.8,2.4 2.8,4.5 5.2,5.1 3.5,0.9 4.9,5 7.3,7.5" />
	<path
   id="path308"
   class="st0"
   d="m 105.7,239 c 1.1,1.4 2.1,3.2 3.4,4.3 2.8,2.4 3.1,3.7 0.7,7" />
	<path
   id="path310"
   class="st0"
   d="m 172.9,272.9 c 0.9,-2.2 1.8,-4.2 2.8,-6.6 2.2,1 3.1,3 3.7,5 0.4,1.4 0.8,1.7 1.9,1.9 2,0.5 3.7,1.4 4.8,4 1.4,3.2 3.4,5.9 5.2,8.8" />
	<path
   id="path312"
   class="st0"
   d="m 216.6,351.7 c 1.2,4.1 3.3,11.9 4.5,16" />
	<path
   id="path314"
   class="st0"
   d="m 225.5,154.3 c -0.8,-0.1 -2.8,-1.2 -3.4,-0.9 -4.6,2.9 -8.6,7.6 -10,14.1" />
	<path
   id="path316"
   class="st0"
   d="m 155,368.9 c 0.9,4.2 2.3,11.2 3.3,15.5" />
	<path
   id="path318"
   class="st0"
   d="m 120.1,243.3 c 1.9,0.8 5.1,10.2 -2.8,14.9" />
	<path
   id="path320"
   class="st0"
   d="m 266.2,322.1 c -0.4,1.2 -0.4,2.2 0.5,3.2 2.9,2.9 5.8,5.8 8.7,8.8" />
	<path
   id="path322"
   class="st0"
   d="M 236,351" />
	<path
   id="path324"
   class="st0"
   d="m 239.9,344.1 c 2.9,0.7 5.8,1.4 8.7,2.1" />
	<path
   id="path326"
   class="st0"
   d="m 220.7,166 -1.1,7.8 c -0.2,3.5 -0.4,8.6 1.6,11.5 1,1.4 6.1,-2.9 7.2,-6.9" />
	<path
   id="path328"
   class="st0"
   d="m 294.6,418.5 c -0.1,0.9 -0.4,1.7 -0.2,2.5 1.4,7 2.3,14.5 7.9,19.1 0.5,0.4 1.7,-0.1 2.6,-0.2" />
	<path
   id="path330"
   class="st0"
   d="m 108.8,275 c -1.1,1.9 -2.2,5 -4.1,6.2 -1.3,0.9 -1.3,3.6 -1.3,4.6" />
	<path
   id="path332"
   class="st0"
   d="m 228.4,198.5 c -3.6,6 -6,14.7 -6.1,22.6 2.9,-2.7 3.5,-5.8 1.9,-9.7" />
	<path
   id="path334"
   class="st0"
   d="m 193.9,285.7 c 2.3,3.2 4.7,6.5 7.1,9.7" />
	<path
   id="path336"
   class="st0"
   d="M 94.7,263.2" />
	<path
   id="path338"
   class="st0"
   d="M 106.5,266" />
	<path
   id="path340"
   class="st0"
   d="m 257.3,317.5 c -2.9,0.1 -5.4,1.9 -7.9,3.4 -4.6,2.7 -9.3,5 -13.9,7.5" />
	<path
   id="path342"
   class="st0"
   d="m 261.5,379.6 c 0.8,7 3.3,12.7 8.7,16.3" />
	<path
   id="path344"
   class="st0"
   d="m 259.1,340.7 c -0.5,1.9 -1.7,2.7 -3.1,3.1 -2.5,0.9 -4.9,1.7 -7.3,2.5" />
	<path
   id="path346"
   class="st0"
   d="m 263.2,399.7 c -1.6,1.4 -2.5,3.8 -2,6.1 0.1,0.4 0.5,4.6 4,3.1" />
	<path
   id="path348"
   class="st0"
   d="m 172.2,333.8 c -2.1,2.9 -4.2,5.7 -5.8,8 -0.5,6.4 -1.4,14.1 -1.8,19.9" />
	<path
   id="path350"
   class="st0"
   d="M 516.6,271.7" />
	<path
   id="path352"
   class="st0"
   d="m 146.3,269 c 3.6,2.8 4,4.4 5.8,9 1.3,3.5 3.7,5.1 6.1,6.8 0.4,0.3 0.9,0.6 1.3,0.9" />
	<path
   id="path354"
   class="st0"
   d="m 161.6,365.1 c 2.3,2.4 8.7,8.3 11.2,11.1" />
	<path
   id="path356"
   class="st0"
   d="m 172.5,357 c -2.6,1.6 -8.5,5.1 -11.1,6.6" />
	<path
   id="path358"
   class="st0"
   d="m 167.2,256 c 1.7,3 2.5,5.8 4.2,8.8" />
	<path
   id="path360"
   class="st0"
   d="m 179.5,272.6 c -0.7,0.1 -1.4,0.4 -2.1,0.3 -3.3,-0.4 -5.9,0.3 -7.6,4.1 -1.1,2.5 -2.8,4.7 -3.9,7.3 -1.3,3.3 -2.8,8.1 -4,11.6" />
	<path
   id="path362"
   class="st0"
   d="m 190.8,291.4 c -0.8,0.3 -1.6,0.6 -2.3,0.9 -1.7,0.6 -3.3,1.1 -5,1.6" />
	<path
   id="path364"
   class="st0"
   d="m 177.2,287.3 c -1.3,0.1 -2.6,0.2 -2.7,-2.2 -0.1,-1.2 -0.7,-2.4 -1,-3.2 -2.5,0.7 -4.8,1.4 -7.1,2" />
	<path
   id="path366"
   class="st0"
   d="m 228.9,203.6 c -2,1.9 -2.2,6 -2.1,8.8" />
	<path
   id="path368"
   class="st0"
   d="M 215.2,371.5" />
	<path
   id="path370"
   class="st0"
   d="M 221.5,370.8" />
	<path
   id="path372"
   class="st0"
   d="m 354.2,369.5 c 1.7,2.4 3.8,4 6.3,4.7" />
	<path
   id="path374"
   class="st0"
   d="m 171.4,264.8 c -1.6,1.1 -3.3,2.2 -4.2,2.8 0,4.7 0,8.8 0,12.9" />
	<path
   id="path376"
   class="st0"
   d="m 179.8,286.4 c 1.1,2.3 2.3,4.6 3.4,6.9" />
	<path
   id="path378"
   class="st0"
   d="M 228.4,422.3" />
	<path
   id="path380"
   class="st0"
   d="m 172.8,376.2 c 1.7,2.1 7.9,9.1 9.6,11.2" />
	<path
   id="path382"
   class="st0"
   d="m 294.1,417.4 c 1.3,0.9 2.2,1.9 2.4,3.9 0.1,0.9 0.8,1.7 1.3,2.5" />
	<path
   id="path384"
   class="st0"
   d="m 322.2,306.5 c 0.5,2.1 1.1,4.2 1.6,6.3" />
	<path
   id="path386"
   class="st0"
   d="m 264.4,390.2 c -0.9,0.2 -1.7,0.5 -2.6,0.6 -1.4,0.2 -2.2,1.1 -2.1,2.9" />
	<path
   id="path388"
   class="st0"
   d="m 505,362.6 c 1.1,-0.6 2.2,-1.3 3.3,-1.9 -0.7,-3.5 -3,-3.4 -4.9,-3.3 -1.7,0.1 -3.4,1 -5,1.8 -2,1 -4,2.3 -6.1,3.5" />
	<path
   id="path390"
   class="st0"
   d="m 503.1,274.4 c 0.4,0.5 0.1,7.4 0,7.6" />
	<path
   id="path392"
   class="st0"
   d="m 158.2,384.2 c 0.5,1.9 1.6,7.5 2.1,9.4" />
	<path
   id="path394"
   class="st0"
   d="m 360.8,374.8 c 1.4,1.4 2.9,1.2 4.7,0.4 -1.2,-2.4 -2.8,-1.7 -4.4,-1.4" />
	<path
   id="path396"
   class="st0"
   d="m 210,389.4 c -0.4,-1.2 8.8,1 17.1,0" />
	<path
   id="path398"
   class="st0"
   d="M 453,384" />
	<path
   id="path400"
   class="st0"
   d="m 127.8,284.2 c -1.2,2.3 -11,8.7 -9.6,10.6" />
	<path
   id="path402"
   class="st0"
   d="m 221.8,253.5 c -0.7,1.4 -1.4,2.9 -2.1,4.4" />
	<path
   id="path404"
   class="st0"
   d="M 182.4,242.8" />
	<path
   id="path406"
   class="st0"
   d="m 160.1,286.7 c 0.4,1.4 0.7,2.7 1.1,4.1" />
	<path
   id="path408"
   class="st0"
   d="m 259.6,393.7 c -0.3,5.2 3.4,4.1 4.5,5.2" />
	<path
   id="path410"
   class="st0"
   d="m 321.1,302.1 c 0.2,1.1 3.5,12.8 3.7,13.8" />
	<path
   id="path412"
   class="st0"
   d="M 318.2,172.8" />
	<path
   id="path414"
   class="st0"
   d="M 197.6,455.2" />
</g>
<path
   id="path418"
   class="st1"
   d="M 96.960161,316.58719" />
<path
   id="path420"
   class="st1"
   d="M 378.20364,308.26579" />
<line
   id="line422"
   class="st0"
   x1="77.792976"
   y1="205.04301"
   x2="68.44313"
   y2="199.52658" />
<path
   id="path424"
   class="st0"
   d="M 16.551454,130.33743" />
<path
   id="path426"
   class="st0"
   d="m 26.088301,117.34109 c 2.898454,1.58948 2.150466,3.17896 1.589475,4.39444" />
<path
   id="path428"
   class="st0"
   d="M 397.93182,138.28484" />
<path
   id="path430"
   class="st1"
   d="m 313.59618,99.202311 c -8.88236,9.069389 -11.21982,31.041619 -5.98391,38.241039" />
<path
   id="path432"
   class="st1"
   d="m 319.01909,144.64276 c 12.90279,-6.82542 17.11023,-29.54565 13.55728,-38.52154" />
<path
   id="path434"
   class="st0"
   d="m 362.40239,98.828311 c -0.93498,12.061359 -2.80495,14.024829 -15.05325,11.687359 -8.22787,-1.58948 -11.78081,-3.45946 -21.31766,-7.01242 -10.28484,-3.833449 -20.66317,-6.357919 -29.45203,-12.809339 0,0 -9.53685,-5.98393 -2.61796,-17.390792 4.76843,-7.760406 8.41487,-16.081806 16.17524,-19.728262 7.76038,-3.739955 17.29723,-4.207449 26.74057,-0.747991 8.60187,3.178962 15.61425,9.16289 20.38268,16.455802 5.42291,8.882393 5.8904,19.167273 5.14241,29.545643 z" />
<path
   id="path436"
   class="st0"
   d="m 268.9039,147.54122 c 1.30898,-1.77648 2.89845,-3.55295 4.76842,-5.23593 8.88236,-7.85391 19.44769,-9.25639 29.45203,-6.63842 13.93127,3.64645 21.22416,14.30532 21.97214,17.76478" />
<path
   id="path440"
   class="st2"
   d="m 106.5905,315.4652 v 20.00876 c 0,10.84587 2.33747,54.04235 12.7158,79.75454 26.08608,64.32722 66.94492,95.64934 123.13752,95.83634 41.60683,0.0935 93.96599,-37.39955 117.80811,-96.95833 10.47183,-26.27318 17.57772,-53.76185 17.29722,-82.18551 l -0.28049,-23.74871" />
<g
   id="g225"
   transform="matrix(0.93498498,0,0,0.93498873,-77.040542,-122.01603)">
	<path
   d="m 479.3,483.8 c -0.2,3.1 -0.4,6.2 -0.5,9.2 0,1.2 -0.4,1.9 -1.5,2.4 -4,1.8 -6,5.2 -6.8,9.3 -1.1,5.5 -1.9,11.1 -2.9,16.6 -1.9,10.1 -4.2,20.1 -8.2,29.6 -2.6,6 -6.1,11.4 -11.4,15.5 -5.4,4.1 -11.3,6.9 -18,8.3 -6.3,1.3 -12.5,1.1 -18.7,0.4 -4.4,-0.5 -8.9,-1.1 -13.2,-2.3 -4.8,-1.4 -9.5,-2.9 -13.9,-5.3 -6.4,-3.5 -11.4,-8.3 -15.4,-14.4 -3.1,-4.8 -6,-9.7 -8.5,-14.8 -3.8,-8.1 -6.6,-16.5 -8.1,-25.3 -0.8,-4.7 -3.8,-8.3 -7.6,-9 -6.3,-1.1 -11.1,2.3 -12.2,8.7 -1.8,10.3 -5.3,20.1 -10.1,29.4 -2.7,5.2 -5.7,10.1 -9.2,14.7 -2.8,3.7 -6.1,6.7 -10.1,9.1 -4.5,2.7 -9.2,4.6 -14.2,6.2 -4.5,1.4 -9.1,1.9 -13.7,2.8 -4.3,0.9 -8.6,0.7 -12.9,0.8 -5.2,0.1 -10.2,-1 -14.9,-2.8 -6,-2.2 -11.2,-5.8 -15.5,-10.5 -3.6,-4 -6,-8.9 -7.9,-13.9 -4.8,-12.5 -7.1,-25.6 -9.2,-38.7 -0.5,-3.2 -0.9,-6.4 -2.5,-9.3 -1.3,-2.2 -3,-3.9 -5.3,-4.9 -0.7,-0.3 -1.2,-0.6 -1.2,-1.5 -0.2,-5.1 -0.3,-10.3 -0.6,-15.4 -0.1,-1.4 0.4,-1.9 1.7,-2 2.3,-0.3 4.6,-0.5 6.9,-0.9 10.6,-1.8 21.3,-1.9 31.9,-2.7 7.4,-0.5 14.7,-0.5 22.1,-0.8 7.4,-0.3 14.6,1 21.8,1.9 5.9,0.7 11.6,2.2 17.3,3.6 4.6,1.2 9.2,2.7 13.2,5.2 5.2,3.2 10.9,4.5 17,4.5 5.1,-0.1 10.3,0.2 15.4,-0.2 4.3,-0.3 8.1,-1.8 11.7,-4 1.8,-1.1 3.7,-2.1 5.7,-2.8 5.2,-1.9 10.6,-3.3 16,-4.5 5.9,-1.3 11.9,-1.9 17.9,-2.8 7.9,-1.2 15.7,-0.6 23.6,-0.6 0.4,0 0.9,0 1.3,0 8.7,0.1 17.4,0.9 26,1.4 4.4,0.2 8.8,0.5 13.2,1.2 3.8,0.6 7.7,1.1 11.5,1.7 0,2.2 0,4.5 0,6.9 z m -213,83.6 c 3.2,-0.1 6.4,-0.1 9.6,-0.8 4.7,-1 9.4,-1.7 13.9,-3.4 3.1,-1.1 5.9,-2.5 8.8,-4 1.4,-0.7 2.7,-1.8 3.9,-2.9 6.2,-6 10.7,-13.1 13.6,-21.1 4,-10.7 5.3,-21.7 3.3,-33 -1.1,-6 -4.1,-10.7 -9.2,-14.2 -4,-2.7 -8.6,-4 -13.2,-5.1 -3.9,-0.9 -7.9,-1.2 -11.9,-1.2 -8.7,0 -17.3,-0.2 -26,0 -5.3,0.1 -10.7,0.4 -15.9,2 -4.7,1.5 -9,3.5 -12.6,6.9 -4.3,4 -6.4,9.2 -6.8,14.9 -0.4,6.6 0.3,13.1 1.2,19.6 0.8,6 2.3,11.8 4.7,17.4 2,4.6 4.7,8.9 7.7,13 3.3,4.5 7.6,7.6 12.8,9.3 5.3,1.8 10.6,3 16.1,2.6 z m 145.4,-85.8 c -3.5,0 -7,0 -10.6,0 -5.7,0.1 -11.3,0.4 -16.8,2 -4.5,1.3 -8.8,3 -12.4,6 -3.3,2.7 -5.5,6.1 -6.5,10.3 -1.5,6 -1.8,12 -1.2,18.1 0.6,7.3 2.5,14.2 5.5,20.8 1.9,4.3 4.3,8.4 7.2,12.1 1.8,2.3 3.8,4.5 6.1,6.4 2.3,1.9 5.1,3.2 7.8,4.4 6.3,2.9 13,4.3 19.7,5.2 6.3,0.9 12.6,0.7 18.8,-0.8 4.1,-1 7.9,-2.4 11.4,-4.8 3.4,-2.3 5.9,-5.5 8.3,-8.9 2.7,-3.9 4.9,-8 6.6,-12.4 3.9,-10.8 5.1,-22 5,-33.3 -0.1,-10.1 -5.4,-17.1 -14.4,-21.2 -4.9,-2.3 -10.3,-3.4 -15.7,-3.7 -6.4,-0.3 -12.6,-0.2 -18.8,-0.2 z m -193.7,4 c -1.5,0 -3,0 -4.6,0 -1,0 -1.3,0.5 -1.3,1.4 0,0.8 0.2,1.4 1.2,1.3 3.1,0 6.2,0 9.3,0 1,0 1.2,-0.5 1.2,-1.3 0,-0.9 -0.2,-1.5 -1.2,-1.4 -1.6,0 -3.1,0 -4.6,0 z m 248.2,2.7 c 1.6,0 3.1,0 4.7,0 1,0 1.2,-0.5 1.2,-1.3 0,-0.9 -0.2,-1.4 -1.3,-1.4 -3.1,0 -6.2,0 -9.3,0 -1,0 -1.1,0.6 -1.1,1.4 0,0.8 0.2,1.4 1.2,1.4 1.6,-0.1 3.1,-0.1 4.6,-0.1 z"
   id="path223" />
</g>
<rect
   x="399.2012"
   y="538.59991"
   class="st3"
   width="274.89999"
   height="105.3"
   id="rect227" />
<path
   style="opacity:0.016129;fill:#060000;stroke:#000000;stroke-width:0.815718"
   d="m 121.71327,333.82837 c -0.79915,-1.29306 0.78361,-1.76953 5.31645,-1.60046 3.62941,0.13538 4.60597,0.35711 4.60597,1.04579 0,0.69178 -0.99202,0.9091 -4.75843,1.04242 -3.07068,0.10871 -4.90228,-0.0643 -5.16399,-0.48775 z"
   id="path1057" /><path
   style="opacity:0.016129;fill:#060000;stroke:#000000;stroke-width:0.815718"
   d="m 124.49818,334.59722 c 1.20172,-0.1257 3.16818,-0.1257 4.3699,0 1.20173,0.12571 0.2185,0.22856 -2.18495,0.22856 -2.40345,0 -3.38668,-0.10285 -2.18495,-0.22856 z"
   id="path1059" /><path
   style="opacity:0.016129;fill:#060000;stroke:#000000;stroke-width:0.815718"
   d="m 121.62158,333.68001 c -0.70638,-1.14294 1.05039,-1.61464 5.40814,-1.4521 3.58213,0.13361 4.60597,0.36185 4.60597,1.02675 0,0.67989 -0.99311,0.86296 -4.85012,0.89407 -2.66757,0.0215 -4.99136,-0.1894 -5.16399,-0.46872 z"
   id="path1061" /><path
   style="opacity:0.016129;fill:#060000;fill-opacity:1;stroke:#000000;stroke-width:0.0720999"
   d="m 123.00613,334.40397 c -0.78311,-0.0846 -1.43112,-0.23991 -1.56681,-0.3756 -0.14212,-0.14213 -0.17842,-0.89893 -0.0623,-1.29848 0.0809,-0.27838 0.0881,-0.2857 0.43491,-0.44556 0.19394,-0.0894 0.37975,-0.16254 0.41289,-0.16254 0.0331,0 0.0603,-0.0221 0.0603,-0.049 0,-0.0305 1.44162,-0.0504 3.8178,-0.0527 3.30937,-0.004 3.88376,0.007 4.31311,0.0804 1.09829,0.18671 1.59941,0.54433 1.60171,1.14304 0.003,0.72941 -0.62178,1.07433 -2.18789,1.20825 -0.0964,0.008 -0.18355,-0.0207 -0.23175,-0.0768 -0.10624,-0.1239 -0.45941,-0.1805 -1.55786,-0.24966 -1.39397,-0.0878 -3.72658,0.005 -4.14734,0.165 -0.0724,0.0275 -0.15671,0.08 -0.18734,0.11662 -0.0455,0.0544 -0.17335,0.0539 -0.69944,-0.003 z"
   id="path1063" /><rect
   style="opacity:1;fill:#000000;fill-opacity:1;stroke:#000300;stroke-width:0;stroke-miterlimit:4;stroke-dasharray:none;stroke-opacity:1"
   id="rect1121"
   width="13.595963"
   height="4.1715059"
   x="120.04946"
   y="331.13315" /><rect
   style="fill:#000000;fill-opacity:1;stroke:#000300;stroke-width:0;stroke-miterlimit:4;stroke-dasharray:none;stroke-opacity:1"
   id="rect1121-3"
   width="13.595963"
   height="4.1715059"
   x="352.15939"
   y="331.05588" /></svg>
